<svg xmlns="http://www.w3.org/2000/svg" viewBox="0 0 134.95 134.95"><defs><style>.cls-1{fill:#fff;}</style></defs><g id="Layer_2" data-name="Layer 2"><g id="Layer_1-2" data-name="Layer 1"><circle cx="67.47" cy="67.47" r="67.47"/><path class="cls-1" d="M60.82,64.37v5.91c0,13.76,4,22.66,12.11,22.66,6.06,0,10.92-6.28,15.11-16h1.35l-.52,16.68H88c-.52-1-.82-1.5-2-1.5-2.54,0-6.65,2.32-14.88,2.32-15.86,0-25.58-8.38-25.58-26.26,0-18.1,10.47-27.67,25.8-27.67,7.78,0,11.37,2.32,14,2.32,1.2,0,1.5-.53,2-1.5h.82l.6,16.23H87.44c-4.11-9.2-8.6-15.55-15-15.55C64.86,42,60.82,48.89,60.82,64.37Z"/></g></g></svg>